<svg
    xmlns="http://www.w3.org/2000/svg"
    width="576"
    height="512"
    viewBox="0 0 576 512"
  >
    <g>
      <g>
        <path
          d="M199.4,402.1l266.4,0c7.1,0,12.8-5.9,12.8-12.8l0-25.6c0-7.1-5.9-12.8-12.8-12.8l-266.4,0c-7.1,0-12.8,5.9-12.8,12.8
				l0,25.6C186.6,396.3,192.5,402.1,199.4,402.1z"
        />
        <path
          d="M199.4,323l266.4,0c7.1,0,12.8-5.9,12.8-12.8v-25.6c0-7.1-5.9-12.8-12.8-12.8l-266.4,0c-7.1,0-12.8,5.9-12.8,12.8l0,25.6
				C186.6,317.3,192.5,323,199.4,323z"
        />
        <path
          d="M199.4,243.8l266.4,0c7.1,0,12.8-5.9,12.8-12.8v-25.6c0-7.1-5.9-12.8-12.8-12.8l-266.4,0c-7.1,0-12.8,5.9-12.8,12.8
				l0,25.6C186.6,238.1,192.5,243.8,199.4,243.8z"
        />
        <path
          d="M110.2,402.1l30.8,0c7.1,0,12.8-5.9,12.8-12.8l0-25.6c0-7.1-5.9-12.8-12.8-12.8h-30.8c-7.1,0-12.8,5.9-12.8,12.8l0,25.6
				C97.4,396.3,103.3,402.1,110.2,402.1z"
        />
        <path
          d="M110.2,323h30.8c7.1,0,12.8-5.9,12.8-12.8v-25.6c0-7.1-5.9-12.8-12.8-12.8h-30.8c-7.1,0-12.8,5.9-12.8,12.8l0,25.6
				C97.4,317.3,103.3,323,110.2,323z"
        />
        <path
          d="M110.2,243.8l30.8,0c7.1,0,12.8-5.9,12.8-12.8l0-25.6c0-7.1-5.9-12.8-12.8-12.8l-30.8,0c-7.1,0-12.8,5.9-12.8,12.8l0,25.6
				C97.4,238.1,103.3,243.8,110.2,243.8z"
        />
      </g>
      <path
        d="M159.7,158.5l256.7,0c5.3,0,9.9-4.6,9.9-9.9l0-28.8c0-5.3-4.6-9.9-9.9-9.9l-256.7,0c-5.3,0-9.9,4.6-9.9,9.9l0,28.8
			C149.8,154.2,154.3,158.5,159.7,158.5z"
      />
    </g>
    <path
      d="M528,32H48C21.5,32,0,53.5,0,80v352c0,26.5,21.5,48,48,48h480c26.5,0,48-21.5,48-48V80C576,53.5,554.5,32,528,32z M528,432
		H48V80h480V432z"
    />
  </svg>