<svg width="24" height="24" xmlns="http://www.w3.org/2000/svg"><path d="M12.45 14.5c.13.5.02 1.06-.4 1.5H23a1 1 0 001-1V1a1 1 0 00-1-1H1a1 1 0 00-1 1v12.28h1.5V1.5h21v13H12.45z"/><path d="M5.5 11.5h-.47c-.3 0-.6.1-.84.25H4v-1.5h1.5v1.26zM20 5.5H8v-1h12v1zM4 5.75h1.5v-1.5H4v1.5zM20 8.5H8v-1h12v1zM4 8.75h1.5v-1.5H4v1.5zM20 11.5H8v-1h12v1zM10.89 14.78H7.62a.11.11 0 00-.1.08l-.25.72c-.02.08.03.16.1.16h1.27c.1 0 .15.12.08.19L6.7 18.1l1.05 3.4c.02.07-.03.14-.1.14H6.63a.1.1 0 01-.1-.08L6 19.83c-.03-.1-.17-.1-.2 0l-.43 1.22a.1.1 0 000 .06l.39 1.49c.01.04.06.08.1.08h3.29c.07 0 .12-.08.1-.14l-1.33-4.28c-.01-.04 0-.09.03-.12l3.02-3.17c.07-.07.01-.2-.08-.2z"/><path d="M7.02 13H5.03a.11.11 0 00-.1.08l-.26.73c-.03.07.03.15.1.15h.84c.08 0 .13.07.1.15l-2.37 6.72a.1.1 0 01-.2 0l-1.7-4.85a.11.11 0 01.1-.15h.86c.04 0 .09.03.1.07l.62 1.75c.03.1.17.1.2 0l.96-2.72a.11.11 0 00-.1-.15H.1c-.08 0-.13.07-.1.15l3.12 9c.04.1.17.1.2 0l3.8-10.78c.02-.07-.03-.15-.1-.15z" fill="#D8141C"/></svg>