<svg width="26" height="26" fill="none" xmlns="http://www.w3.org/2000/svg"><path d="M2 1a1 1 0 011-1h22a1 1 0 011 1v16a1 1 0 01-1 1H12.16l1.42-1.5H24.5v-15h-21v11.78H2V1z" fill="#000"/><path fill-rule="evenodd" clip-rule="evenodd" d="M18 5h-8v8h8V5zm-4.75 1v2.25H11v1.5h2.25V12h1.5V9.75H17v-1.5h-2.25V6h-1.5z" fill="#000"/><path d="M12.89 14.78H9.62a.11.11 0 00-.1.08l-.25.72c-.02.08.03.16.1.16h1.27c.1 0 .15.12.08.19L8.7 18.1l1.05 3.4c.02.07-.03.14-.1.14H8.63a.1.1 0 01-.1-.08L8 19.83c-.03-.1-.17-.1-.2 0l-.43 1.22a.1.1 0 000 .06l.39 1.49c.01.04.06.08.1.08h3.29c.07 0 .12-.08.1-.14l-1.33-4.28c-.01-.04 0-.09.03-.12l3.02-3.17c.07-.07.01-.2-.08-.2z" fill="#000"/><path d="M9.02 13H7.03a.11.11 0 00-.1.08l-.26.73c-.03.07.03.15.1.15h.84c.08 0 .13.07.1.15l-2.37 6.72a.1.1 0 01-.2 0l-1.7-4.85a.11.11 0 01.1-.15h.86c.04 0 .09.03.1.07l.62 1.75c.03.1.17.1.2 0l.96-2.72a.11.11 0 00-.1-.15H2.1c-.08 0-.13.07-.1.15l3.12 9c.04.1.17.1.2 0l3.8-10.78c.02-.07-.03-.15-.1-.15z" fill="#D8141C"/></svg>