<svg width="24" height="24" xmlns="http://www.w3.org/2000/svg"><path d="M10.89 14.778l-3.267.007a.11.11 0 00-.102.076l-.25.722c-.022.076.03.152.103.152h1.27c.095 0 .146.122.08.19L6.7 18.105h.007l1.042 3.397c.022.076-.03.144-.103.144h-1.02a.104.104 0 01-.102-.076L6 19.83c-.029-.106-.168-.106-.205-.007l-.426 1.223a.109.109 0 000 .069l.39 1.481c.014.046.058.084.102.084H9.15c.073 0 .125-.076.103-.145l-1.329-4.277c-.014-.038 0-.084.03-.114l3.016-3.176c.066-.069.015-.19-.08-.19z"/><path d="M7.022 13l-1.99.008a.11.11 0 00-.102.076l-.257.721c-.03.076.03.152.103.152h.836c.074 0 .125.076.103.152l-2.37 6.717a.108.108 0 01-.206 0l-1.703-4.848a.112.112 0 01.103-.152h.859a.11.11 0 01.103.076l.616 1.748a.108.108 0 00.206 0l.954-2.72a.112.112 0 00-.103-.152H.108c-.073 0-.125.076-.103.152l3.127 8.996a.108.108 0 00.205 0l3.787-10.774c.022-.076-.029-.152-.102-.152z" fill="#D8141C"/><path fill-rule="evenodd" clip-rule="evenodd" d="M11.08 17l.472-.497c.976-1.02.252-2.725-1.166-2.725l-1.415.003V7.385H5.882c-.26 0-.47.206-.47.461v3.66l-.38.002h-.004A1.609 1.609 0 004 11.884V7.846C4 6.826 4.843 6 5.882 6H18.5c1.04 0 1.882.827 1.882 1.846v8.308c0 1.02-.842 1.846-1.882 1.846h-8.34l.949-1h-.028zm4.302-.385H18.5c.26 0 .47-.206.47-.461V7.846a.466.466 0 00-.47-.461h-3.118v9.23z"/></svg>