<svg width="24" height="24" xmlns="http://www.w3.org/2000/svg"><path fill-rule="evenodd" clip-rule="evenodd" d="M5 5.5h14c.28 0 .5.22.5.5v3a.5.5 0 01-.5.5H5a.5.5 0 01-.5-.5V6c0-.28.22-.5.5-.5zM19 4H5a2 2 0 00-2 2v3c0 1.1.9 2 2 2h14a2 2 0 002-2V6a2 2 0 00-2-2zm-2 4l1-1h-2l1 1zm-4.55 6.5H19c.28 0 .5.22.5.5v3a.5.5 0 01-.5.5H9.68l-.08.09.44 1.41H19a2 2 0 002-2v-3a2 2 0 00-2-2H8.62v.28h2.27c.8 0 1.4.55 1.56 1.22zM17 17l1-1h-2l1 1z"/><path d="M10.89 14.78H7.62a.11.11 0 00-.1.08l-.25.72c-.02.08.03.16.1.16h1.27c.1 0 .15.12.08.19L6.7 18.1l1.05 3.4c.02.07-.03.14-.1.14H6.63a.1.1 0 01-.1-.08L6 19.83c-.03-.1-.17-.1-.2 0l-.43 1.22a.1.1 0 000 .06l.39 1.49c.01.04.06.08.1.08h3.29c.07 0 .12-.08.1-.14l-1.33-4.28c-.01-.04 0-.09.03-.12l3.02-3.17c.07-.07.01-.2-.08-.2z"/><path d="M7.02 13H5.03a.11.11 0 00-.1.08l-.26.73c-.03.07.03.15.1.15h.84c.08 0 .13.07.1.15l-2.37 6.72a.1.1 0 01-.2 0l-1.7-4.85a.11.11 0 01.1-.15h.86c.04 0 .09.03.1.07l.62 1.75c.03.1.17.1.2 0l.96-2.72a.11.11 0 00-.1-.15H.1c-.08 0-.13.07-.1.15l3.12 9c.04.1.17.1.2 0l3.8-10.78c.02-.07-.03-.15-.1-.15z" fill="#D8141C"/></svg>