<svg width="24" height="24" fill="none" xmlns="http://www.w3.org/2000/svg">
    <path d="M5 8h14a.5.5 0 01.5.5v7a.5.5 0 01-.5.5h-6.941l-.004.003-1.421 1.497H19a2 2 0 002-2v-7a2 2 0 00-2-2H5a2 2 0 00-2 2v4.778h.269l.244-.688a1.61 1.61 0 01.987-.991V8.5A.5.5 0 015 8z" fill="#000" />
    <path d="M8.502 12.5A1.608 1.608 0 008 11.821V11.5h8v1H8.502zM10.89 14.778l-3.267.008a.11.11 0 00-.102.075l-.25.722c-.022.076.03.152.103.152h1.27c.095 0 .146.122.08.19L6.7 18.105h.007l1.042 3.397c.022.076-.03.145-.103.145h-1.02a.104.104 0 01-.102-.076L6 19.83c-.029-.107-.168-.107-.205-.008l-.426 1.223a.109.109 0 000 .069l.39 1.481c.014.046.058.084.102.084H9.15c.073 0 .125-.076.103-.145l-1.329-4.277c-.014-.038 0-.084.03-.114l3.016-3.176c.066-.069.015-.19-.08-.19z" fill="#000" />
    <path d="M7.022 13l-1.99.008a.11.11 0 00-.102.076l-.257.721c-.03.076.03.152.103.152h.836c.074 0 .125.076.103.152l-2.37 6.717a.108.108 0 01-.206 0l-1.703-4.848a.112.112 0 01.103-.152h.859a.11.11 0 01.103.076l.616 1.748a.108.108 0 00.206 0l.954-2.72a.112.112 0 00-.103-.152H.108c-.073 0-.125.076-.103.152l3.127 8.996a.108.108 0 00.205 0l3.787-10.774c.022-.076-.029-.152-.102-.152z" fill="#D8141C" />
</svg>