<svg xmlns="http://www.w3.org/2000/svg" width="24" height="24"><g clip-path="url(#a)"><path fill-rule="evenodd" d="M8 3H6v2a2 2 0 0 0-2 2v4.885l.039-.032a1.61 1.61 0 0 1 .92-.35l.04-.003H5.5v-2h13V19a.5.5 0 0 1-.5.5H9.885l.466 1.5H18a2 2 0 0 0 2-2V7a2 2 0 0 0-2-2V3h-2v2H8V3Zm.63 10H9v-2H7v.5h.029a1.6 1.6 0 0 1 1.34.73c.142.217.239.483.26.77ZM6 6.5h12a.5.5 0 0 1 .5.5v1h-13V7a.5.5 0 0 1 .5-.5Zm7 4.5h-2v2h2v-2Zm2 0v2h2v-2h-2Z" clip-rule="evenodd"/><path d="M10.899 14.78h-3.27a.11.11 0 0 0-.1.08l-.25.72c-.02.08.03.16.1.16h1.27c.1 0 .15.12.08.19l-2.02 2.17 1.05 3.4c.02.07-.03.14-.1.14h-1.02a.1.1 0 0 1-.1-.08l-.53-1.73c-.03-.1-.17-.1-.2 0l-.43 1.22a.1.1 0 0 0 0 .06l.39 1.49c.01.04.06.08.1.08h3.29c.07 0 .12-.08.1-.14l-1.33-4.28c-.01-.04 0-.09.03-.12l3.02-3.17c.07-.07.01-.2-.08-.2v.01Z"/><path fill="#D8141C" d="M7.029 13h-1.99a.11.11 0 0 0-.1.08l-.26.73c-.03.07.03.15.1.15h.84c.08 0 .13.07.1.15l-2.37 6.72a.1.1 0 1 1-.2 0l-1.7-4.85a.11.11 0 0 1 .1-.15h.86c.04 0 .09.03.1.07l.62 1.75c.03.1.17.1.2 0l.96-2.72a.11.11 0 0 0-.1-.15H.109c-.08 0-.13.07-.1.15l3.12 9c.04.1.17.1.2 0l3.8-10.78c.02-.07-.03-.15-.1-.15Z"/></g><defs><clipPath id="a"><path fill="#fff" d="M0 0h24v24H0z"/></clipPath></defs></svg>