<svg width="25" height="24" fill="none" xmlns="http://www.w3.org/2000/svg"><path fill-rule="evenodd" clip-rule="evenodd" d="M6.5 5a1 1 0 0 1 1-1h8a1 1 0 0 1 1 1v3a1 1 0 0 1-1 1H12v4h1.5v-1a1 1 0 0 1 1-1h8a1 1 0 0 1 1 1v3a1 1 0 0 1-1 1h-8a.997.997 0 0 1-.714-.3c.603-1.022-.112-2.422-1.396-2.422L11 13.28V9H7.5a1 1 0 0 1-1-1V5Zm1.25 2.75v-2.5h7.5v2.5h-7.5Zm7 4.5v2.5h7.5v-2.5h-7.5ZM11.847 21H13.5v1a1 1 0 0 0 1 1h8a1 1 0 0 0 1-1v-3a1 1 0 0 0-1-1h-8a1 1 0 0 0-1 1v1H12v-2.359l-.902.95.749 2.409Zm2.903.75v-2.5h7.5v2.5h-7.5Z" fill="#000"/><path d="m12.39 14.778-3.267.007a.11.11 0 0 0-.102.076l-.25.722c-.022.076.03.152.103.152h1.27c.095 0 .146.122.08.19L8.2 18.105h.007l1.042 3.397c.022.076-.03.144-.103.144h-1.02a.104.104 0 0 1-.102-.076L7.5 19.83c-.029-.106-.168-.106-.205-.007l-.426 1.223a.109.109 0 0 0 0 .069l.39 1.481c.014.046.058.084.102.084h3.288c.073 0 .125-.076.103-.145l-1.329-4.277c-.014-.038 0-.084.03-.114l3.016-3.176c.066-.069.015-.19-.08-.19Z" fill="#000"/><path d="m8.522 13-1.99.008a.11.11 0 0 0-.102.076l-.257.721c-.03.076.03.152.103.152h.836c.074 0 .125.076.103.152l-2.37 6.717a.108.108 0 0 1-.206 0l-1.703-4.848a.112.112 0 0 1 .103-.152h.859a.11.11 0 0 1 .103.076l.616 1.748a.108.108 0 0 0 .206 0l.954-2.72a.112.112 0 0 0-.103-.152H1.608c-.074 0-.125.076-.103.152l3.127 8.996a.108.108 0 0 0 .205 0l3.787-10.774c.022-.076-.029-.152-.102-.152Z" fill="#D8141C"/></svg>