<svg width="25" height="24" xmlns="http://www.w3.org/2000/svg"><path fill-rule="evenodd" clip-rule="evenodd" d="M7.5 4a2 2 0 0 0-2 2v2a2 2 0 0 0 2 2h2a2 2 0 0 0 2-2V6a2 2 0 0 0-2-2h-2Zm2 1.25h-2a.75.75 0 0 0-.75.75v2c0 .414.336.75.75.75h2a.75.75 0 0 0 .75-.75V6a.75.75 0 0 0-.75-.75Z"/><path d="M15.402 7a.5.5 0 1 0 0-1 .5.5 0 0 0 0 1Z"/><path fill-rule="evenodd" clip-rule="evenodd" d="M12.902 4.603c0-.333.27-.603.603-.603h3.022c.16 0 .313.064.427.177l2.596 2.597a1.208 1.208 0 0 1 0 1.703v.002l-2.167 2.167a1.21 1.21 0 0 1-1.709 0l-2.595-2.593a.603.603 0 0 1-.177-.427V4.603Zm1.207.604v2.169l2.418 2.416.001.001 2.167-2.166v-.002l-2.418-2.418h-2.168Z" fill="#000"/><path d="M11.226 19H18.5v-1h-6.84l-.562.59.127.41ZM13.559 16H18.5v-1H14c-.021.352-.16.704-.441 1ZM10.119 13H18.5v-1H9.693c.251.278.396.64.426 1Z"/><path d="m12.39 14.778-3.267.007a.11.11 0 0 0-.102.076l-.25.722c-.022.076.03.152.103.152h1.27c.095 0 .146.122.08.19L8.2 18.105h.007l1.042 3.397c.022.076-.03.144-.103.144h-1.02a.104.104 0 0 1-.102-.076L7.5 19.83c-.029-.106-.168-.106-.205-.007l-.426 1.223a.109.109 0 0 0 0 .069l.39 1.481c.014.046.058.084.102.084h3.288c.073 0 .125-.076.103-.145l-1.329-4.277c-.014-.038 0-.084.03-.114l3.016-3.176c.066-.069.015-.19-.08-.19Z"/><path d="m8.522 13-1.99.008a.11.11 0 0 0-.102.076l-.257.721c-.03.076.03.152.103.152h.836c.074 0 .125.076.103.152l-2.37 6.717a.108.108 0 0 1-.206 0l-1.703-4.848a.112.112 0 0 1 .103-.152h.859a.11.11 0 0 1 .103.076l.616 1.748a.108.108 0 0 0 .206 0l.954-2.72a.112.112 0 0 0-.103-.152H1.608c-.074 0-.125.076-.103.152l3.127 8.996a.108.108 0 0 0 .205 0l3.787-10.774c.022-.076-.029-.152-.102-.152Z" fill="#D8141C"/></svg>