<svg width="24" height="24" xmlns="http://www.w3.org/2000/svg"><path d="M10.89 14.78H7.62a.11.11 0 00-.1.08l-.25.72c-.02.08.03.16.1.16h1.27c.1 0 .15.12.08.19L6.7 18.1l1.05 3.4c.02.07-.03.14-.1.14H6.63a.1.1 0 01-.1-.08L6 19.83c-.03-.1-.17-.1-.2 0l-.43 1.22a.1.1 0 000 .06l.39 1.49c.01.04.06.08.1.08h3.29c.07 0 .12-.08.1-.14l-1.33-4.28c-.01-.04 0-.09.03-.12l3.02-3.17c.07-.07.01-.2-.08-.2z"/><path d="M7.02 13H5.03a.11.11 0 00-.1.08l-.26.73c-.03.07.03.15.1.15h.84c.08 0 .13.07.1.15l-2.37 6.72a.1.1 0 01-.2 0l-1.7-4.85a.11.11 0 01.1-.15h.86c.04 0 .09.03.1.07l.62 1.75c.03.1.17.1.2 0l.96-2.72a.11.11 0 00-.1-.15H.1c-.08 0-.13.07-.1.15l3.12 9c.04.1.17.1.2 0l3.8-10.78c.02-.07-.03-.15-.1-.15z" fill="#D8141C"/><path d="M8.5 3a.5.5 0 00-1 0v2.47L5.97 7a.75.75 0 001.06 1.06l1.53-1.53a.75.75 0 00-.06-1.12V3z"/><path fill-rule="evenodd" clip-rule="evenodd" d="M13.8 7.55a6 6 0 11.16-2.24L17.5 8l-3.7-.45zM12.5 6a4.5 4.5 0 11-9 0 4.5 4.5 0 019 0zM19.32 3.05v3.12A2.35 2.35 0 0018 8.3a2.37 2.37 0 001.32 2.13v4.5A2.36 2.36 0 0018 17.1a2.38 2.38 0 002.37 2.38 2.37 2.37 0 001.07-.27l.03-.01a2.38 2.38 0 00-.06-4.24v-4.5l.02-.01.01-.01a2.38 2.38 0 00-.03-4.26V3.05a1.05 1.05 0 10-2.09 0zm1 15.26a1.26 1.26 0 01-1.25-1.27 1.26 1.26 0 011.26-1.27 1.26 1.26 0 011.08 1.9c-.21.38-.62.64-1.08.64zm-1-9.3a1.25 1.25 0 002.1-.02c.12-.2.2-.43.2-.7 0-.25-.08-.49-.2-.69a1.26 1.26 0 10-2.1 1.4z"/><path d="M21.41 19.22a2.37 2.37 0 01-2.09 0v3.13a1.05 1.05 0 102.1 0v-3.13z"/></svg>