<?xml version="1.0" encoding="utf-8"?>
<!-- Generator: Adobe Illustrator 23.1.0, SVG Export Plug-In . SVG Version: 6.00 Build 0)  -->
<svg version="1.1" id="レイヤー_1" xmlns="http://www.w3.org/2000/svg" xmlns:xlink="http://www.w3.org/1999/xlink" x="0px"
	 y="0px" viewBox="0 0 190.5 199.3" style="enable-background:new 0 0 190.5 199.3;" xml:space="preserve">
<path d="M143.8,14.5c14,9.6,24.9,22.8,32.7,37.4c7.7,14.6,12.5,30.7,13.7,47.5c1.2,16.8-1.2,34.2-8.7,49.4
	c-7.5,15.1-20.4,27.7-35.5,36.7c-15.2,8.9-32.5,14.2-49.6,13.8c-17.2-0.5-34-6.7-48-16.4c-13.9-9.7-24.9-22.8-33.1-37.4
	C6.8,130.8,1.1,114.8,0.1,98.2c-1-16.7,2.8-33.8,11.7-47.6c8.8-13.8,22.7-24,37.6-33C64.3,8.7,80.2,1,96.6,0.1
	C112.9-0.9,129.9,5.1,143.8,14.5z"/>
</svg>
