<svg width="24" height="24" fill="none" xmlns="http://www.w3.org/2000/svg">
  <path d="M18.35 11.26c.43.28.72.46.85.53.2.11.47.23.8.37L19.04 14a13.37 13.37 0 01-2.42-1.49 7.6 7.6 0 01-2.87.47c-1.7 0-3.03-.42-4.01-1.26A5.23 5.23 0 018 7.52c0-1.74.5-3.1 1.52-4.07C10.54 2.48 11.95 2 13.77 2c1.86 0 3.28.47 4.3 1.42 1 .95 1.5 2.3 1.5 4.06 0 1.58-.4 2.84-1.22 3.78zm-2.64-1.69c.27-.47.41-1.17.41-2.1 0-1.07-.2-1.84-.63-2.3-.41-.46-1-.68-1.73-.68-.68 0-1.24.23-1.67.7-.42.47-.63 1.2-.63 2.2 0 1.15.2 1.97.62 2.44s1 .7 1.71.7c.24 0 .46-.02.67-.06-.3-.27-.75-.52-1.38-.76l.55-1.18c.3.05.54.12.7.2.18.08.5.27 1 .6l.38.24zM10.89 14.78H7.62a.11.11 0 00-.1.08l-.25.72c-.02.08.03.16.1.16h1.27c.1 0 .15.12.08.19L6.7 18.1l1.05 3.4c.02.07-.03.14-.1.14H6.63a.1.1 0 01-.1-.08L6 19.83c-.03-.1-.17-.1-.2 0l-.43 1.22a.1.1 0 000 .06l.39 1.49c.01.04.06.08.1.08h3.29c.07 0 .12-.08.1-.14l-1.33-4.28c-.01-.04 0-.09.03-.12l3.02-3.17c.07-.07.01-.2-.08-.2z" fill="#000"/>
  <path d="M7.02 13H5.03a.11.11 0 00-.1.08l-.26.73c-.03.07.03.15.1.15h.84c.08 0 .13.07.1.15l-2.37 6.72a.1.1 0 01-.2 0l-1.7-4.85a.11.11 0 01.1-.15h.86c.04 0 .09.03.1.07l.62 1.75c.03.1.17.1.2 0l.96-2.72a.11.11 0 00-.1-.15H.1c-.08 0-.13.07-.1.15l3.12 9c.04.1.17.1.2 0l3.8-10.78c.02-.07-.03-.15-.1-.15z" fill="#D8141C"/>
</svg>