<svg width="24" height="24" xmlns="http://www.w3.org/2000/svg"><path d="M10.89 14.78H7.62a.11.11 0 00-.1.08l-.25.72c-.02.08.03.16.1.16h1.27c.1 0 .15.12.08.19L6.7 18.1l1.05 3.4c.02.07-.03.14-.1.14H6.63a.1.1 0 01-.1-.08L6 19.83c-.03-.1-.17-.1-.2 0l-.43 1.22a.1.1 0 000 .06l.39 1.49c.01.04.06.08.1.08h3.29c.07 0 .12-.08.1-.14l-1.33-4.28c-.01-.04 0-.09.03-.12l3.02-3.17c.07-.07.01-.2-.08-.2z"/><path d="M7.02 13H5.03a.11.11 0 00-.1.08l-.26.73c-.03.07.03.15.1.15h.84c.08 0 .13.07.1.15l-2.37 6.72a.1.1 0 01-.2 0l-1.7-4.85a.11.11 0 01.1-.15h.86c.04 0 .09.03.1.07l.62 1.75c.03.1.17.1.2 0l.96-2.72a.11.11 0 00-.1-.15H.1c-.08 0-.13.07-.1.15l3.12 9c.04.1.17.1.2 0l3.8-10.78c.02-.07-.03-.15-.1-.15z" fill="#D8141C"/><path fill-rule="evenodd" clip-rule="evenodd" d="M23 18h-5v5h5v-5zm-5-1a1 1 0 00-1 1v5a1 1 0 001 1h5a1 1 0 001-1v-5a1 1 0 00-1-1h-5z"/><path d="M19 19h3v1h-3v-1z"/><path fill-rule="evenodd" clip-rule="evenodd" d="M23 8h-5v5h5V8zm-5-1a1 1 0 00-1 1v5a1 1 0 001 1h5a1 1 0 001-1V8a1 1 0 00-1-1h-5z"/><path d="M19 9h3v1h-3V9zM0 1a1 1 0 011-1h5a1 1 0 011 1v5a1 1 0 01-1 1H1a1 1 0 01-1-1V1z"/><path fill-rule="evenodd" clip-rule="evenodd" d="M6 1H1v5h5V1zM1 0a1 1 0 00-1 1v5a1 1 0 001 1h5a1 1 0 001-1V1a1 1 0 00-1-1H1zM11.5 4.5H9v-1h3.5V10H15v1h-2.5v8.5H15v1h-3.5v-16z"/></svg>