<svg width="24" height="24" xmlns="http://www.w3.org/2000/svg"><path d="M9.68 18.5l-.08.09.44 1.41H19a1 1 0 001-1V1a1 1 0 00-1-1H1a1 1 0 00-1 1v12.28h1.5V1.5h17v17H9.68z"/><path d="M12.39 15.5c.13-.33.14-.68.06-1h4.22v1h-4.28zM12.1 13.83c-.28-.33-.7-.55-1.21-.55H8.62c.01-.14 0-.3-.02-.45h8.07v1H12.1zM3.43 12.83l-.1.27v-.27h.1z"/><path d="M10.46 23.5c.2-.29.3-.64.3-1H22a.5.5 0 00.5-.5V4a.5.5 0 00-.5-.5h-1.38v-1H22c.83 0 1.5.67 1.5 1.5v18c0 .83-.67 1.5-1.5 1.5H10.46z"/><path fill-rule="evenodd" clip-rule="evenodd" d="M3.33 3.33h13.34v7.5H3.33v-7.5zM8 6.16a1 1 0 001-1 1 1 0 00-2 0 1 1 0 001 1zM5.52 10h8.95c.45 0 .7-.57.4-.94l-2.73-3.5a.5.5 0 00-.79 0L9.16 8.38a.5.5 0 01-.82-.04L7.39 6.9a.5.5 0 00-.86 0L5.1 9.1c-.25.37 0 .9.42.9z"/><path d="M10.89 14.78H7.62a.11.11 0 00-.1.08l-.25.72c-.02.08.03.16.1.16h1.27c.1 0 .15.12.08.19L6.7 18.1l1.05 3.4c.02.07-.03.14-.1.14H6.63a.1.1 0 01-.1-.08L6 19.83c-.03-.1-.17-.1-.2 0l-.43 1.22a.1.1 0 000 .06l.39 1.49c.01.04.06.08.1.08h3.29c.07 0 .12-.08.1-.14l-1.33-4.28c-.01-.04 0-.09.03-.12l3.02-3.17c.07-.07.01-.2-.08-.2z"/><path d="M7.02 13H5.03a.11.11 0 00-.1.08l-.26.73c-.03.07.03.15.1.15h.84c.08 0 .13.07.1.15l-2.37 6.72a.1.1 0 01-.2 0l-1.7-4.85a.11.11 0 01.1-.15h.86c.04 0 .09.03.1.07l.62 1.75c.03.1.17.1.2 0l.96-2.72a.11.11 0 00-.1-.15H.1c-.08 0-.13.07-.1.15l3.12 9c.04.1.17.1.2 0l3.8-10.78c.02-.07-.03-.15-.1-.15z" fill="#D8141C"/></svg>