<svg viewBox="0 0 24 24" fill="none" xmlns="http://www.w3.org/2000/svg">
<path fill-rule="evenodd" clip-rule="evenodd" d="M16.9208 10H15.0867L11 20.4025H13.2659L14.0464 18.3117H17.9539L18.7345 20.4025H21L16.9208 10ZM17.196 16.2722H14.8113L16.0037 13.101L17.196 16.2722Z"/>
<path d="M2.88989 13.2779L6.92766 3H9.08316L12.6509 12.098L12.1778 13.3024C12.0853 13.2864 11.9891 13.2779 11.8895 13.2779L9.61827 13.2832C9.63535 13.0912 9.61794 12.8922 9.56731 12.6998H10.5705L8.0054 5.87765L5.88608 11.5143C5.26786 11.5713 4.72308 11.9848 4.51343 12.59L4.2686 13.2779H2.88989Z" />
<path d="M12.4974 16.5909L12.2506 17.2193L12.5751 18.0885H15L13.456 14.151L13.3922 14.3133C13.6015 14.8567 13.5271 15.5102 13.0553 16.0035L12.4974 16.5909Z" />
<path d="M11.8895 14.778L8.62346 14.7856C8.57942 14.7856 8.53538 14.8159 8.5207 14.8615L8.27116 15.5833C8.24915 15.6593 8.30052 15.7353 8.37392 15.7353H9.64364C9.73905 15.7353 9.79043 15.8569 9.72437 15.9253L7.69869 18.1059H7.70603L8.74823 21.5022C8.77025 21.5782 8.71887 21.6465 8.64548 21.6465H7.62529C7.57392 21.6465 7.53722 21.6162 7.52254 21.5706L7.00144 19.8306C6.97208 19.7242 6.83264 19.7242 6.79594 19.823L6.37025 21.0463C6.36291 21.0691 6.36291 21.0919 6.37025 21.1147L6.75924 22.5963C6.77392 22.6419 6.81796 22.6799 6.86199 22.6799H10.1501C10.2235 22.6799 10.2748 22.6039 10.2528 22.5355L8.92437 18.2578C8.90969 18.2198 8.92437 18.1743 8.95373 18.1439L11.9702 14.9679C12.0363 14.8995 11.9849 14.778 11.8895 14.778Z"/>
<path d="M8.02164 13L6.03265 13.0076C5.98862 13.0076 5.94458 13.038 5.9299 13.0836L5.67302 13.8054C5.64366 13.8814 5.70238 13.9573 5.77577 13.9573H6.61247C6.68586 13.9573 6.73724 14.0333 6.71522 14.1093L4.34458 20.8259C4.30789 20.9247 4.17578 20.9247 4.13908 20.8259L2.43633 15.9784C2.40697 15.9024 2.46569 15.8265 2.53908 15.8265H3.3978C3.44183 15.8265 3.48587 15.8568 3.50055 15.9024L4.11706 17.65C4.15376 17.7487 4.28587 17.7487 4.32257 17.65L5.27669 14.9299C5.30605 14.8539 5.24733 14.7779 5.17394 14.7779H1.10789C1.0345 14.7779 0.983125 14.8539 1.00514 14.9299L4.13174 23.9259C4.16844 24.0247 4.30055 24.0247 4.33724 23.9259L8.12439 13.152C8.14641 13.076 8.09503 13 8.02164 13Z" fill="#D8141C"/>
</svg>
