<svg xmlns="http://www.w3.org/2000/svg" viewBox="0 0 24 23.97"><defs><style>.cls-1{fill:#d8141c;}.cls-2{fill:#0b0c0c;}</style></defs><g id="レイヤー_2" data-name="レイヤー 2"><g id="レイヤー_1-2" data-name="レイヤー 1"><path d="M10.9,14.8H7.6a.1.1,0,0,0-.1.1l-.2.7c0,.1,0,.2.1.2H8.7c.1,0,.1.1.1.2l-2,2.2h0l1,3.4c0,.1,0,.1-.1.1h-1c-.1,0-.1,0-.1-.1L6,19.8c0-.1-.2-.1-.2,0L5.4,21v.1l.4,1.5.1.1H9.2a.1.1,0,0,0,.1-.1L8,18.3v-.1L11,15C11,14.9,11,14.8,10.9,14.8Z"/><path class="cls-1" d="M7,13H5a.1.1,0,0,0-.1.1l-.3.7c0,.1,0,.2.1.2h.8c.1,0,.1.1.1.2L3.2,20.9c0,.1-.2.1-.2,0L1.4,16c0-.1,0-.2.1-.2h.9a.1.1,0,0,1,.1.1l.6,1.7c0,.1.2.1.2,0l1-2.7c0-.1,0-.2-.1-.2H.1a.31.31,0,0,0-.1.2l3.1,9c0,.1.2.1.2,0L7.1,13.1A.1.1,0,0,0,7,13Z"/><path class="cls-2" d="M15.5,0A8.5,8.5,0,0,0,7.58,11.59a1.64,1.64,0,0,1,1,1.69h2.27A1.61,1.61,0,0,1,12.06,16l-.18.19A8.5,8.5,0,1,0,15.5,0Zm1.7,13.6H13.8V6.8h3.4Zm0-8.3H13.8V3.4h3.4Z"/></g></g></svg>