<svg width="24" height="24" fill="none" xmlns="http://www.w3.org/2000/svg">
    <path fillRule="evenodd" clip-rule="evenodd" d="M18 1.2H8.714a1.8 1.8 0 00-1.8 1.8v.269a2.2 2.2 0 01-1.533 2.096l-.93.296 1.15.487a2.156 2.156 0 011.313 1.985c0 .92.747 1.667 1.668 1.667H18A1.8 1.8 0 0019.8 8V3A1.8 1.8 0 0018 1.2zM5.132 7.253c.353.15.582.496.582.88A2.867 2.867 0 008.582 11H18a3 3 0 003-3V3a3 3 0 00-3-3H8.714a3 3 0 00-3 3v.269a1 1 0 01-.697.953L1 5.5l4.132 1.753z" fill="#000" />
    <path fillRule="evenodd" clip-rule="evenodd" d="M9.889 6.1H9V4.9h.889v1.2zm2.667 0h-1.778V4.9h1.778v1.2zm2.666 0h-1.778V4.9h1.778v1.2zM17 6.1h-.889V4.9H17v1.2zM21.214 16.695c0 .304.154.587.408.753L24 19l-2.225 1.09c-.343.167-.56.518-.56.9a3.009 3.009 0 01-3 3.01H14a3 3 0 01-3-3v-3.885l1.055-1.111a1.582 1.582 0 00.38-1.564c.456-.28.992-.44 1.565-.44h4.519a2.695 2.695 0 012.695 2.695zm-3 6.105H14a1.8 1.8 0 01-1.8-1.8v-4a1.8 1.8 0 011.8-1.8h4.519c.826 0 1.495.67 1.495 1.495 0 .71.358 1.37.952 1.758l.61.398-.329.16a2.203 2.203 0 00-1.233 1.979c0 1-.811 1.81-1.8 1.81z" fill="#000" />
    <path d="M10.89 14.778l-3.267.008a.11.11 0 00-.102.075l-.25.722c-.022.076.03.152.103.152h1.27c.095 0 .146.122.08.19L6.7 18.105h.007l1.042 3.397c.022.076-.03.145-.103.145h-1.02a.104.104 0 01-.102-.076L6 19.83c-.029-.107-.168-.107-.205-.008l-.426 1.223a.109.109 0 000 .069l.39 1.481c.014.046.058.084.102.084H9.15c.073 0 .125-.076.103-.145l-1.329-4.277c-.014-.038 0-.084.03-.114l3.016-3.176c.066-.069.015-.19-.08-.19z" fill="#000" />
    <path d="M7.022 13l-1.99.008a.11.11 0 00-.102.076l-.257.721c-.03.076.03.152.103.152h.836c.074 0 .125.076.103.152l-2.37 6.717a.108.108 0 01-.206 0l-1.703-4.848a.112.112 0 01.103-.152h.859a.11.11 0 01.103.076l.616 1.748a.108.108 0 00.206 0l.954-2.72a.112.112 0 00-.103-.152H.108c-.073 0-.125.076-.103.152l3.127 8.996a.108.108 0 00.205 0l3.787-10.774c.022-.076-.029-.152-.102-.152z" fill="#D8141C" />
</svg>