<svg width="25" height="24" fill="none" xmlns="http://www.w3.org/2000/svg"><path fill-rule="evenodd" clip-rule="evenodd" d="M.5 13.712V1.75C.5.784 1.284 0 2.25 0h5.5c.372 0 .717.116 1 .314a1.742 1.742 0 0 1 1-.314h5.5c.372 0 .716.116 1 .314a1.742 1.742 0 0 1 1-.314h5.5c.966 0 1.75.784 1.75 1.75V17a1 1 0 0 1-1 1H11.66l1.424-1.5H23V7H2v6.278h-.392c-.47 0-.841.172-1.108.434Zm0 2.895V17c0 .336.166.633.42.814L.5 16.607Zm12.6-3.168a1.607 1.607 0 0 0-.71-.161l-.49.001V11.6H9.5v-1.2h2.4V8h1.2v2.4h2.4v1.2h-2.4v1.839ZM9.5 1.75V5.5h6V1.75a.25.25 0 0 0-.25-.25h-5.5a.25.25 0 0 0-.25.25Zm13.5 0V5.5h-6V1.75a.25.25 0 0 1 .25-.25h5.5a.25.25 0 0 1 .25.25Z" fill="#000"/><path d="m12.39 14.778-3.267.008a.11.11 0 0 0-.102.075l-.25.722c-.022.076.03.152.103.152h1.27c.095 0 .146.122.08.19L8.2 18.105h.007l1.042 3.397c.022.076-.03.145-.103.145h-1.02a.104.104 0 0 1-.102-.076L7.5 19.83c-.029-.107-.168-.107-.205-.008l-.426 1.223a.109.109 0 0 0 0 .069l.39 1.481c.014.046.058.084.102.084h3.288c.073 0 .125-.076.103-.145l-1.329-4.277c-.014-.038 0-.084.03-.114l3.016-3.176c.066-.069.015-.19-.08-.19Z" fill="#000"/><path d="m8.522 13-1.99.008a.11.11 0 0 0-.102.076l-.257.721c-.03.076.03.152.103.152h.836c.074 0 .125.076.103.152l-2.37 6.717a.108.108 0 0 1-.206 0l-1.703-4.848a.112.112 0 0 1 .103-.152h.859a.11.11 0 0 1 .103.076l.616 1.748a.108.108 0 0 0 .206 0l.954-2.72a.112.112 0 0 0-.103-.152H1.608c-.074 0-.125.076-.103.152l3.127 8.996a.108.108 0 0 0 .205 0l3.787-10.774c.022-.076-.029-.152-.102-.152Z" fill="#D8141C"/></svg>