<svg width="24" height="24" xmlns="http://www.w3.org/2000/svg"><path d="M9.68 18.5l-.08.09.44 1.41H19a1 1 0 001-1V1a1 1 0 00-1-1H1a1 1 0 00-1 1v12.28h1.5V1.5h17v17H9.68z"/><path fill-rule="evenodd" clip-rule="evenodd" d="M8.59 12.8a1.56 1.56 0 00-1.57-1.3h-.59A4.99 4.99 0 0110 3a5 5 0 11-1.41 9.8zM9 6.1V5h2v1.11H9zM9 11V7h2v4H9z"/><path d="M12.5 14.83a1.66 1.66 0 00-.4-1h4.57v1H12.5zM11.27 16.83l.79-.83c.05-.05.1-.1.14-.17h4.47v1h-5.4z"/><path d="M10.46 23.5c.2-.29.3-.64.3-1H22a.5.5 0 00.5-.5V4a.5.5 0 00-.5-.5h-1.38v-1H22c.83 0 1.5.67 1.5 1.5v18c0 .83-.67 1.5-1.5 1.5H10.46zM10.89 14.78H7.62a.11.11 0 00-.1.08l-.25.72c-.02.08.03.16.1.16h1.27c.1 0 .15.12.08.19L6.7 18.1l1.05 3.4c.02.07-.03.14-.1.14H6.63a.1.1 0 01-.1-.08L6 19.83c-.03-.1-.17-.1-.2 0l-.43 1.22a.1.1 0 000 .06l.39 1.49c.01.04.06.08.1.08h3.29c.07 0 .12-.08.1-.14l-1.33-4.28c-.01-.04 0-.09.03-.12l3.02-3.17c.07-.07.01-.2-.08-.2z"/><path d="M7.02 13H5.03a.11.11 0 00-.1.08l-.26.73c-.03.07.03.15.1.15h.84c.08 0 .13.07.1.15l-2.37 6.72a.1.1 0 01-.2 0l-1.7-4.85a.11.11 0 01.1-.15h.86c.04 0 .09.03.1.07l.62 1.75c.03.1.17.1.2 0l.96-2.72a.11.11 0 00-.1-.15H.1c-.08 0-.13.07-.1.15l3.12 9c.04.1.17.1.2 0l3.8-10.78c.02-.07-.03-.15-.1-.15z" fill="#D8141C"/></svg>