<svg xmlns="http://www.w3.org/2000/svg" width="24" height="24"><path d="m11.89 14.778-3.267.007a.11.11 0 0 0-.102.076l-.25.722c-.022.076.03.152.103.152h1.27c.095 0 .146.122.08.19L7.7 18.105h.007l1.042 3.397c.022.076-.03.144-.103.144h-1.02a.104.104 0 0 1-.102-.076L7 19.83c-.029-.106-.168-.106-.205-.007l-.426 1.223a.109.109 0 0 0 0 .069l.39 1.481c.014.046.058.084.102.084h3.288c.073 0 .125-.076.103-.145l-1.329-4.277c-.014-.038 0-.084.03-.114l3.016-3.176c.066-.069.015-.19-.08-.19Z"/><path fill="#D8141C" d="m8.022 13-1.99.008a.11.11 0 0 0-.102.076l-.257.721c-.03.076.03.152.103.152h.836c.074 0 .125.076.103.152l-2.37 6.717a.108.108 0 0 1-.206 0l-1.703-4.848a.112.112 0 0 1 .103-.152h.859a.11.11 0 0 1 .103.076l.616 1.748a.108.108 0 0 0 .206 0l.954-2.72a.112.112 0 0 0-.103-.152H1.108c-.074 0-.125.076-.103.152l3.127 8.996a.108.108 0 0 0 .205 0l3.787-10.774c.022-.076-.029-.152-.102-.152Z"/><path fill="#000" fill-rule="evenodd" d="M19.5 3.139A2.28 2.28 0 0 0 18.714 3H15.5v.5c0 .385-.144.735-.38 1h3.594c.434 0 .786.352.786.786V6H21v-.714c0-.097-.006-.192-.018-.286A1.496 1.496 0 0 1 19.5 3.5v-.361ZM21 7.5h-1.5v11.214a.786.786 0 0 1-.786.786h-7.833l.466 1.5h7.367A2.286 2.286 0 0 0 21 18.714V7.5Zm-8.415-3A1.5 1.5 0 0 1 14 3.5V3H5.286A2.286 2.286 0 0 0 3 5.286v7.992h1.269l.231-.65V5.286c0-.434.352-.786.786-.786h7.3Z" clip-rule="evenodd"/><path fill="#000" fill-rule="evenodd" d="M19.5 3.5V1h.5c.275 0 .5-.225.5-.5S20.275 0 20 0h-5c-.275 0-.5.225-.5.5s.225.5.5.5h.5v2.5c0 .83-.67 1.5-1.5 1.5v1h2.985v3.5l.5.5.5-.5V6H21V5c-.83 0-1.5-.67-1.5-1.5Z" clip-rule="evenodd"/></svg>