<svg width="25" height="24" xmlns="http://www.w3.org/2000/svg"><path d="m12.39 14.778-3.267.008a.11.11 0 0 0-.102.075l-.25.722c-.022.076.03.152.103.152h1.27c.095 0 .146.122.08.19L8.2 18.105h.007l1.042 3.397c.022.076-.03.145-.103.145h-1.02a.104.104 0 0 1-.102-.076L7.5 19.83c-.029-.107-.168-.107-.205-.008l-.426 1.223a.109.109 0 0 0 0 .069l.39 1.481c.014.046.058.084.102.084h3.288c.073 0 .125-.076.103-.145l-1.329-4.277c-.014-.038 0-.084.03-.114l3.016-3.176c.066-.069.015-.19-.08-.19Z"/><path d="m8.522 13-1.99.008a.11.11 0 0 0-.102.076l-.257.721c-.03.076.03.152.103.152h.836c.074 0 .125.076.103.152l-2.37 6.717a.108.108 0 0 1-.206 0l-1.703-4.848a.112.112 0 0 1 .103-.152h.859a.11.11 0 0 1 .103.076l.616 1.748a.108.108 0 0 0 .206 0l.954-2.72a.112.112 0 0 0-.103-.152H1.608c-.074 0-.125.076-.103.152l3.127 8.996a.108.108 0 0 0 .205 0l3.787-10.774c.022-.076-.029-.152-.102-.152Z" fill="#D8141C"/><path fill-rule="evenodd" clip-rule="evenodd" d="M17.5 8.75h4v-1.5h-4v1.5ZM13.44 8l-2.47 2.47 1.06 1.06L15.56 8l-3.53-3.53-1.06 1.06L13.44 8Z"/><path d="M9.998 7.743c0 .263-.196.47-.417.47h-.417l.01 2.345c0 .041-.003.08-.007.119v.237c0 .324-.233.586-.52.586h-.21c-.014 0-.028-.013-.042-.002-.018-.011-.037.002-.055.002h-.736c-.287 0-.52-.262-.52-.586V9.625c0-.26-.187-.469-.417-.469h-.834c-.23 0-.416.21-.416.469v1.29c0 .323-.233.585-.521.585h-.728c-.02 0-.039-.002-.059-.003-.015.002-.03.003-.046.003h-.209c-.287 0-.52-.262-.52-.586V8.212h-.417c-.234 0-.417-.206-.417-.47 0-.131.04-.248.13-.35L5.97 4.116A.351.351 0 0 1 6.255 4c.092 0 .196.03.275.103L9.854 7.39c.105.103.158.22.144.352Z"/></svg>