<svg xmlns="http://www.w3.org/2000/svg" viewBox="0 0 24.25 17.6"><defs><style>.cls-1{fill:#d8141c;}.cls-2{stroke:#000;stroke-miterlimit:10;stroke-width:0.25px;}.cls-3{fill-rule:evenodd;}.cls-4{fill:none;}</style></defs><g id="レイヤー_2" data-name="レイヤー 2"><g id="レイヤー_1-2" data-name="レイヤー 1"><path d="M11,8.43H7.62v.1l-.19.7c0,.1,0,.2.1.2H8.82c.11,0,.11.1.11.19l-2,2.21,1,3.4c0,.1,0,.1-.1.1h-1c-.1,0-.1,0-.1-.1l-.61-1.81c0-.1-.19-.1-.19,0l-.4,1.2v.11l.4,1.5.1.1h3.4v-.1L8.12,11.92v-.1l3-3.2C11.12,8.52,11.12,8.43,11,8.43Z"/><path class="cls-1" d="M7.12,6.62H5v.11l-.31.7c0,.1,0,.19.1.19h.8c.1,0,.1.11.1.2l-2.4,6.7c0,.1-.2.1-.2,0l-1.6-4.9c0-.1,0-.19.1-.19h1v.1l.6,1.7c0,.1.2.1.2,0l1-2.7c0-.1,0-.2-.1-.2H.23c-.11.1-.11.1-.11.19l3.1,9c0,.1.2.1.2,0l3.8-10.8s0-.1-.1-.1Z"/><path class="cls-2" d="M22.92,7.12h-9.1a1.29,1.29,0,0,1-1.2-1.19V1.32a1.22,1.22,0,0,1,1.2-1.2h9.1a1.29,1.29,0,0,1,1.2,1.2v4.5A1.31,1.31,0,0,1,22.92,7.12ZM13.82.93a.35.35,0,0,0-.39.4v4.5a.42.42,0,0,0,.39.4h9.1a.43.43,0,0,0,.4-.4V1.32a.43.43,0,0,0-.4-.4Z"/><path class="cls-3" d="M20.73,4.23H16V3.32h4.7Z"/><path class="cls-4" d="M8.23,4.23H3.53V3.32h4.7Z"/><rect x="3.53" y="3.32" width="4.7" height="0.9"/><path class="cls-2" d="M10.43.12H1.33A1.22,1.22,0,0,0,.12,1.32v4.5A1.29,1.29,0,0,0,1.33,7H4l.19-.6v-.2l.1-.1h-3a.43.43,0,0,1-.4-.4V1.32a.37.37,0,0,1,.4-.4h9.11a.43.43,0,0,1,.39.4v4.5a.43.43,0,0,1-.39.4H8v.5l-.1.3h2.5a1.28,1.28,0,0,0,1.19-1.2V1.32A1.29,1.29,0,0,0,10.43.12Z"/></g></g></svg>