<svg width="24" height="24" xmlns="http://www.w3.org/2000/svg"><path d="M10.76 22.5c.02.61-.3 1.21-.86 1.5H23a1 1 0 001-1V1a1 1 0 00-1-1H1a1 1 0 00-1 1v12.28h1.5V1.5h21v21H10.76z"/><path d="M10.04 20a1 1 0 00.96-1v-1.89l-1 1.06V19h-.27l.3 1zM10.7 13.28H8.61V13H10a1 1 0 01.7.28zM5.12 24a1.57 1.57 0 01-.18-.11L4.9 24h.22zM1.57 24L0 19.48V23a1 1 0 001 1h.57z"/><path fill-rule="evenodd" clip-rule="evenodd" d="M5 4a1 1 0 00-1 1v5a1 1 0 001 1h5a1 1 0 001-1V5a1 1 0 00-1-1H5zm5 1H5v5h5V5zM13 5a1 1 0 011-1h5a1 1 0 011 1v5a1 1 0 01-1 1h-5a1 1 0 01-1-1V5zm1 0h5v5h-5V5zM13 14a1 1 0 011-1h5a1 1 0 011 1v5a1 1 0 01-1 1h-5a1 1 0 01-1-1v-5zm1 0h5v5h-5v-5z"/><path d="M10.89 14.78H7.62a.11.11 0 00-.1.08l-.25.72c-.02.08.03.16.1.16h1.27c.1 0 .15.12.08.19L6.7 18.1l1.05 3.4c.02.07-.03.14-.1.14H6.63a.1.1 0 01-.1-.08L6 19.83c-.03-.1-.17-.1-.2 0l-.43 1.22a.1.1 0 000 .06l.39 1.49c.01.04.06.08.1.08h3.29c.07 0 .12-.08.1-.14l-1.33-4.28c-.01-.04 0-.09.03-.12l3.02-3.17c.07-.07.01-.2-.08-.2z"/><path d="M7.02 13H5.03a.11.11 0 00-.1.08l-.26.73c-.03.07.03.15.1.15h.84c.08 0 .13.07.1.15l-2.37 6.72a.1.1 0 01-.2 0l-1.7-4.85a.11.11 0 01.1-.15h.86c.04 0 .09.03.1.07l.62 1.75c.03.1.17.1.2 0l.96-2.72a.11.11 0 00-.1-.15H.1c-.08 0-.13.07-.1.15l3.12 9c.04.1.17.1.2 0l3.8-10.78c.02-.07-.03-.15-.1-.15z" fill="#D8141C"/><path d="M15 6h3v1h-3zM15 15h3v1h-3zM6 6h3v1H6z"/></svg>