<svg width="24" height="24" xmlns="http://www.w3.org/2000/svg"><path d="M13.232 14c.192.293.29.646.268 1h9v4.5a.5.5 0 0 1-.5.5H11.036l.466 1.5H22a2 2 0 0 0 2-2V2a2 2 0 0 0-2-2H7a2 2 0 0 0-2 2v9.884a1.609 1.609 0 0 1 1.028-.376h.005l.467-.002V9h16v5h-9.268Z"/><path d="M14.039 13.5v-1.539H12.5v-.922h1.539V9.5h.922v1.539H16.5v.922h-1.539V13.5h-.922ZM14.039 17.962V19.5h.922v-1.538H16.5v-.924h-1.539V15.5h-.922v1.538H12.5v.924h1.539ZM11.89 14.778l-3.267.008a.11.11 0 0 0-.102.075l-.25.722c-.022.076.03.152.103.152h1.27c.095 0 .146.122.08.19L7.7 18.105h.007l1.042 3.397c.022.076-.03.145-.103.145h-1.02a.104.104 0 0 1-.102-.076L7 19.83c-.029-.107-.168-.107-.205-.008l-.426 1.223a.109.109 0 0 0 0 .069l.39 1.481c.014.046.058.084.102.084h3.288c.073 0 .125-.076.103-.145l-1.329-4.277c-.014-.038 0-.084.03-.114l3.016-3.176c.066-.069.015-.19-.08-.19Z"/><path d="m8.022 13-1.99.008a.11.11 0 0 0-.102.076l-.257.721c-.03.076.03.152.103.152h.836c.074 0 .125.076.103.152l-2.37 6.717a.108.108 0 0 1-.206 0l-1.703-4.848a.112.112 0 0 1 .103-.152h.859a.11.11 0 0 1 .103.076l.616 1.748a.108.108 0 0 0 .206 0l.954-2.72a.112.112 0 0 0-.103-.152H1.108c-.074 0-.125.076-.103.152l3.127 8.996a.108.108 0 0 0 .205 0l3.787-10.774c.022-.076-.029-.152-.102-.152Z" fill="#D8141C"/></svg>