<svg xmlns="http://www.w3.org/2000/svg" width="24" height="24"><path d="m11.89 14.778-3.267.007a.11.11 0 0 0-.102.076l-.25.722c-.022.076.03.152.103.152h1.27c.095 0 .146.122.08.19L7.7 18.105h.007l1.042 3.397c.022.076-.03.144-.103.144h-1.02a.104.104 0 0 1-.102-.076L7 19.83c-.029-.106-.168-.106-.205-.007l-.426 1.223a.109.109 0 0 0 0 .069l.39 1.481c.014.046.058.084.102.084h3.288c.073 0 .125-.076.103-.145l-1.329-4.277c-.014-.038 0-.084.03-.114l3.016-3.176c.066-.069.015-.19-.08-.19Z"/><path fill="#D8141C" d="m8.022 13-1.99.008a.11.11 0 0 0-.102.076l-.257.721c-.03.076.03.152.103.152h.836c.074 0 .125.076.103.152l-2.37 6.717a.108.108 0 0 1-.206 0l-1.703-4.848a.112.112 0 0 1 .103-.152h.859a.11.11 0 0 1 .103.076l.616 1.748a.108.108 0 0 0 .206 0l.954-2.72a.112.112 0 0 0-.103-.152H1.108c-.074 0-.125.076-.103.152l3.127 8.996a.108.108 0 0 0 .205 0l3.787-10.774c.022-.076-.029-.152-.102-.152Z"/><path fill-rule="evenodd" d="M19 4.5H5a.5.5 0 0 0-.5.5v7.628l-.231.65H3V5a2 2 0 0 1 2-2h14a2 2 0 0 1 2 2v14a2 2 0 0 1-2 2h-7.653l-.466-1.5H19a.5.5 0 0 0 .5-.5V5a.5.5 0 0 0-.5-.5Zm-7.033 12.65H12A5.13 5.13 0 0 0 17.15 12 5.13 5.13 0 0 0 12 6.85a5.127 5.127 0 0 0-5.127 4.654l1.148-.004C8.29 9.512 9.99 7.983 12 7.983c2.127 0 3.903 1.71 4.012 3.814a36.304 36.304 0 0 0-.992-.52l-.156-.08c-.12-.06-.224-.114-.308-.157a6.051 6.051 0 0 1-.177-.096l-.002-.002-.01-.01-.022-.01c-.165-.083-.39-.073-.595.064l-1.552 1.124-1.807-.638a.383.383 0 0 0-.26-.02.959.959 0 0 0-.192.078l-.006.002-.757.45c.257.275.407.636.441.997l.622-.37 1.87.641a.46.46 0 0 0 .281.022.956.956 0 0 0 .233-.082l.01-.006 1.548-1.12.152.074c.46.227 1.14.562 1.604.87-.4 1.33-1.437 2.401-2.734 2.82-.044.06-.093.119-.148.175l-1.088 1.147Z" clip-rule="evenodd"/></svg>