<svg width="24" height="24" xmlns="http://www.w3.org/2000/svg"><path d="M3.5 12.63V3.5h17v17H10.2l.46 1.5H21a1 1 0 001-1V3a1 1 0 00-1-1H3a1 1 0 00-1 1v10.28h1.27l.23-.65z"/><path fill-rule="evenodd" clip-rule="evenodd" d="M12.5 14.97c.04-.85-.61-1.7-1.61-1.7l-2.27.01c.07-.77-.42-1.65-1.39-1.77a5 5 0 115.27 3.46zM11 7v1.11h2V7h-2zm0 2v4h2V9h-2z"/><path d="M11.27 16.83l.79-.83c.05-.05.1-.1.14-.17h6.47v1h-7.4zM9.67 18.83l-.07-.24.72-.76h8.35v1h-9z"/><path d="M10.89 14.78H7.62a.11.11 0 00-.1.08l-.25.72c-.02.08.03.16.1.16h1.27c.1 0 .15.12.08.19L6.7 18.1l1.05 3.4c.02.07-.03.14-.1.14H6.63a.1.1 0 01-.1-.08L6 19.83c-.03-.1-.17-.1-.2 0l-.43 1.22a.1.1 0 000 .06l.39 1.49c.01.04.06.08.1.08h3.29c.07 0 .12-.08.1-.14l-1.33-4.28c-.01-.04 0-.09.03-.12l3.02-3.17c.07-.07.01-.2-.08-.2z"/><path d="M7.02 13H5.03a.11.11 0 00-.1.08l-.26.73c-.03.07.03.15.1.15h.84c.08 0 .13.07.1.15l-2.37 6.72a.1.1 0 01-.2 0l-1.7-4.85a.11.11 0 01.1-.15h.86c.04 0 .09.03.1.07l.62 1.75c.03.1.17.1.2 0l.96-2.72a.11.11 0 00-.1-.15H.1c-.08 0-.13.07-.1.15l3.12 9c.04.1.17.1.2 0l3.8-10.78c.02-.07-.03-.15-.1-.15z" fill="#D8141C"/></svg>