<svg width="24" height="24" xmlns="http://www.w3.org/2000/svg"><path fill-rule="evenodd" clip-rule="evenodd" d="M13.693 3.605a.5.5 0 0 1 .642.023l5 4.5-.67.744-4.688-4.22-2.17 1.687a.5.5 0 0 1-.484.073l-2.198-.83-3.271 3.272-.708-.708 3.5-3.5a.5.5 0 0 1 .53-.114l2.238.846 2.279-1.773Z"/><path fill-rule="evenodd" clip-rule="evenodd" d="M2.5 2a2 2 0 0 1 2-2h15a2 2 0 0 1 2 2v17.5a2 2 0 0 1-2 2h-7.998l-.466-1.5H19.5a.5.5 0 0 0 .5-.5V15h-6.5a1.654 1.654 0 0 0-.268-1H20V9H4v4.278H2.5V2Zm2-.5h15a.5.5 0 0 1 .5.5v6H4V2a.5.5 0 0 1 .5-.5Z"/><path d="M10.899 24h10.606A2.496 2.496 0 0 0 24 21.5V4h-1v17.5c0 .83-.668 1.5-1.495 1.5h-9.809c-.117.42-.398.79-.797 1ZM12.461 13.38a1.626 1.626 0 0 0-.572-.102h-.35v-1.317H10v-.922h1.539V9.5h.922v1.539H14v.922h-1.539v1.418ZM11.196 17.962l1.265-1.333v.41H14v.922h-1.539V19.5h-.922v-1.538h-.343Z"/><path d="m11.89 14.778-3.267.008a.11.11 0 0 0-.102.075l-.25.722c-.022.076.03.152.103.152h1.27c.095 0 .146.122.08.19L7.7 18.105h.007l1.042 3.397c.022.076-.03.145-.103.145h-1.02a.104.104 0 0 1-.102-.076L7 19.83c-.029-.107-.168-.107-.205-.008l-.426 1.223a.109.109 0 0 0 0 .069l.39 1.481c.014.046.058.084.102.084h3.288c.073 0 .125-.076.103-.145l-1.329-4.277c-.014-.038 0-.084.03-.114l3.016-3.176c.066-.069.015-.19-.08-.19Z"/><path d="m8.022 13-1.99.008a.11.11 0 0 0-.102.076l-.257.721c-.03.076.03.152.103.152h.836c.074 0 .125.076.103.152l-2.37 6.717a.108.108 0 0 1-.206 0l-1.703-4.848a.112.112 0 0 1 .103-.152h.859a.11.11 0 0 1 .103.076l.616 1.748a.108.108 0 0 0 .206 0l.954-2.72a.112.112 0 0 0-.103-.152H1.108c-.074 0-.125.076-.103.152l3.127 8.996a.108.108 0 0 0 .205 0l3.787-10.774c.022-.076-.029-.152-.102-.152Z" fill="#D8141C"/></svg>