<svg xmlns="http://www.w3.org/2000/svg" viewBox="0 0 24 24"><defs><clipPath id="a"><path d="M0 0h24v24H0z" style="fill:none"/></clipPath></defs><g style="clip-path:url(#a)"><path d="M3.2 7V3.3h17.5v3.8c.4-.2.9-.2 1.2 0V2.8c0-.5-.4-.8-.8-.8H2.8c-.5 0-.8.4-.8.8V7c.4-.2.9-.2 1.2 0ZM3.3 13.3H1.6L0 11.4v-.3l2.4-3c0-.1.2-.1.4 0l.6.5c.1 0 .1.2 0 .3l-1.7 2.2v.3l1.5 1.9ZM15 16h2v-1h-2v1Z"/><path d="M18 13h-4c-.5 0-.9.3-1 .8.6.6.7 1.6 0 2.3v2c0 .6.4 1 1 1h4c.6 0 1-.4 1-1v-4c0-.6-.4-1-1-1Zm0 5h-4v-4h4v4ZM7 8h2V7H7v1ZM15 8h2V7h-2v1Z"/><path d="m11.3 20.7.4 1.2h9.5c.5 0 .8-.4.8-.8v-5.4c-.4.2-.9.2-1.2 0v5.1h-9.5ZM10 5H6c-.6 0-1 .4-1 1v4c0 .6.4 1 1 1h4c.6 0 1-.4 1-1V6c0-.6-.4-1-1-1Zm0 5H6V6h4v4ZM18 5h-4c-.6 0-1 .4-1 1v4c0 .6.4 1 1 1h4c.6 0 1-.4 1-1V6c0-.6-.4-1-1-1Zm0 5h-4V6h4v4ZM24 11.1v.3l-2.4 3c0 .1-.2.1-.4 0l-.6-.5c-.1 0-.1-.2 0-.3l1.7-2.2v-.3l-1.7-2.2v-.3l.6-.5h.4l2.4 3ZM11.9 14.8H8.5l-.2.7s0 .2.1.2h1.3s.1.1 0 .2l-2 2.2 1 3.4s0 .1-.1.1H7.5L7 19.9c0-.1-.2-.1-.2 0l-.4 1.2.4 1.5h3.4s.1 0 .1-.1L9 18.2v-.1l3-3.2v-.2Z"/><path d="M8 13H5.9l-.3.7s0 .2.1.2h.8s.1 0 .1.2l-2.4 6.7H4L2.3 16s0-.2.1-.2h1l.6 1.7h.2l1-2.7s0-.2-.1-.2h-4s-.1 0-.1.2l3.1 9h.2L8.1 13s0-.2-.1-.2Z" style="fill:#d8141c"/></g></svg>