<svg xmlns="http://www.w3.org/2000/svg" width="24" height="24"><path d="m11.89 14.778-3.267.007a.11.11 0 0 0-.102.076l-.25.722c-.022.076.03.152.103.152h1.27c.095 0 .146.122.08.19L7.7 18.105h.007l1.042 3.397c.022.076-.03.144-.103.144h-1.02a.104.104 0 0 1-.102-.076L7 19.83c-.029-.106-.168-.106-.205-.007l-.426 1.223a.109.109 0 0 0 0 .069l.39 1.481c.014.046.058.084.102.084h3.288c.073 0 .125-.076.103-.145l-1.329-4.277c-.014-.038 0-.084.03-.114l3.016-3.176c.066-.069.015-.19-.08-.19Z"/><path fill="#D8141C" d="m8.022 13-1.99.008a.11.11 0 0 0-.102.076l-.257.721c-.03.076.03.152.103.152h.836c.074 0 .125.076.103.152l-2.37 6.717a.108.108 0 0 1-.206 0l-1.703-4.848a.112.112 0 0 1 .103-.152h.859a.11.11 0 0 1 .103.076l.616 1.748a.108.108 0 0 0 .206 0l.954-2.72a.112.112 0 0 0-.103-.152H1.108c-.074 0-.125.076-.103.152l3.127 8.996a.108.108 0 0 0 .205 0l3.787-10.774c.022-.076-.029-.152-.102-.152Z"/><path fill-rule="evenodd" d="M4 4.5h14a.5.5 0 0 1 .5.5v14a.5.5 0 0 1-.5.5h-7.12l.467 1.5H18a2 2 0 0 0 2-2V5a2 2 0 0 0-2-2H4a2 2 0 0 0-2 2v8.278h1.5V5a.5.5 0 0 1 .5-.5Zm5.605 8.382h6.562c.46 0 .833-.38.833-.85V6.85c0-.47-.373-.85-.833-.85H5.833C5.373 6 5 6.38 5 6.85v5.034a1.609 1.609 0 0 1 1.028-.376h.097v-.106l1.358-1.01.961.635c.22.146.51.117.698-.07l1.102-1.093 1.835 1.871H8.878c.41.259.659.697.727 1.147Zm3.78 2.618c.139-.336.15-.698.059-1.031H17V15.5h-3.614Zm-2.018 2.281.98-1.031h.84v1.031h-1.82ZM6.125 7.147v2.835l1.008-.75a.554.554 0 0 1 .637-.017l.91.6 1.178-1.167a.555.555 0 0 1 .79.005l3.022 3.082h2.205V7.147h-9.75Z" clip-rule="evenodd"/></svg>