<?xml version="1.0" encoding="utf-8"?>
<!-- Generator: Adobe Illustrator 23.0.6, SVG Export Plug-In . SVG Version: 6.00 Build 0)  -->
<svg version="1.1" id="outer" xmlns="http://www.w3.org/2000/svg" xmlns:xlink="http://www.w3.org/1999/xlink" x="0px" y="0px"
	 viewBox="0 0 512 512" style="enable-background:new 0 0 512 512;" xml:space="preserve">
<g>
	<path d="M438.2,224H73.8c-7.7,0-14,7.2-14,16v32c0,8.8,6.3,16,14,16h364.5c7.7,0,14-7.2,14-16v-32C452.2,231.2,446,224,438.2,224z"
		/>
	<path d="M331.2,378l-67.3-67.3c-4.4-4.4-11.5-4.4-15.8,0L180.8,378c-7,7-2.1,19.1,7.9,19.1H224v68.5c0,7.1,5.7,12.8,12.8,12.8h0
		h38.3c7.1,0,12.8-5.7,12.8-12.8v0v-68.5h35.2C333.3,397.1,338.2,385,331.2,378z"/>
	<path d="M331.2,133l-67.3,67.3c-4.4,4.4-11.5,4.4-15.8,0L180.8,133c-7-7-2.1-19.1,7.9-19.1H224V45.3c0-7.1,5.7-12.8,12.8-12.8h0
		h38.3c7.1,0,12.8,5.7,12.8,12.8v0v68.5h35.2C333.3,113.9,338.2,126,331.2,133z"/>
</g>
</svg>
