<svg width="26" height="24" xmlns="http://www.w3.org/2000/svg"><path fill-rule="evenodd" clip-rule="evenodd" d="M6.5 0a2 2 0 0 0-2 2v10.628l.013-.038A1.61 1.61 0 0 1 6 11.508V9h16v5h-8.768c.192.293.29.646.268 1H22v4.5a.5.5 0 0 1-.5.5H11.036l.466 1.5H21.5a2 2 0 0 0 2-2V2a2 2 0 0 0-2-2h-15Zm15 1.5h-15A.5.5 0 0 0 6 2v6h1.293l3.353-3.354a.5.5 0 0 1 .53-.114l2.238.846 2.279-1.773a.5.5 0 0 1 .641.023L21.192 8H22V2a.5.5 0 0 0-.5-.5ZM19.697 8H8.707l2.418-2.418 2.198.83a.5.5 0 0 0 .484-.073l2.17-1.687L19.697 8Z"/><path d="M12 17.115v.847h1.539V19.5h.922v-1.538H16v-.924h-1.539V15.5h-.922v1.538h-1.467l-.072.077ZM13.539 13.5v-1.539H12v-.922h1.539V9.5h.922v1.539H16v.922h-1.539V13.5h-.922ZM11.89 14.778l-3.267.008a.11.11 0 0 0-.102.075l-.25.722c-.022.076.03.152.103.152h1.27c.095 0 .146.122.08.19L7.7 18.105h.007l1.042 3.397c.022.076-.03.145-.103.145h-1.02a.104.104 0 0 1-.102-.076L7 19.83c-.029-.107-.168-.107-.205-.008l-.426 1.223a.109.109 0 0 0 0 .069l.39 1.481c.014.046.058.084.102.084h3.288c.073 0 .125-.076.103-.145l-1.329-4.277c-.014-.038 0-.084.03-.114l3.016-3.176c.066-.069.015-.19-.08-.19Z"/><path d="m8.022 13-1.99.008a.11.11 0 0 0-.102.076l-.257.721c-.03.076.03.152.103.152h.836c.074 0 .125.076.103.152l-2.37 6.717a.108.108 0 0 1-.206 0l-1.703-4.848a.112.112 0 0 1 .103-.152h.859a.11.11 0 0 1 .103.076l.616 1.748a.108.108 0 0 0 .206 0l.954-2.72a.112.112 0 0 0-.103-.152H1.108c-.074 0-.125.076-.103.152l3.127 8.996a.108.108 0 0 0 .205 0l3.787-10.774c.022-.076-.029-.152-.102-.152Z" fill="#D8141C"/></svg>