<svg xmlns="http://www.w3.org/2000/svg" width="24" height="24" fill="none"><path fill="#000" fill-rule="evenodd" d="M13.059 16c.416-.438.52-1 .393-1.5H24V16H13.059ZM8 11.5V4.02h2.987c.76 0 1.436.16 2.029.479a3.432 3.432 0 0 1 1.396 1.368c.339.593.508 1.307.508 2.143 0 .836-.17 1.552-.508 2.149a3.48 3.48 0 0 1-1.396 1.368c-.593.315-1.27.473-2.03.473H9.194c-.27-.298-.664-.5-1.171-.5H8Zm3.036 8.5-.438-1.41.086-.09H17V20h-5.964Zm-.05-9.3H9.46V5.32h1.528c.517 0 .948.108 1.294.325.345.216.606.526.78.929.175.402.263.881.263 1.436 0 .555-.088 1.034-.262 1.436a2.005 2.005 0 0 1-.781.93c-.346.216-.777.324-1.294.324Z" clip-rule="evenodd"/><path fill="#000" d="m11.89 14.778-3.267.007a.11.11 0 0 0-.102.076l-.25.722c-.022.076.03.152.103.152h1.27c.095 0 .146.122.08.19L7.7 18.105h.007l1.042 3.397c.022.076-.03.144-.103.144h-1.02a.104.104 0 0 1-.102-.076L7 19.83c-.029-.106-.168-.106-.205-.007l-.426 1.223a.109.109 0 0 0 0 .069l.39 1.481c.014.046.058.084.102.084h3.288c.073 0 .125-.076.103-.145l-1.329-4.277c-.014-.038 0-.084.03-.114l3.016-3.176c.066-.069.015-.19-.08-.19Z"/><path fill="#D8141C" d="m8.022 13-1.99.008a.11.11 0 0 0-.102.076l-.257.721c-.03.076.03.152.103.152h.836c.074 0 .125.076.103.152l-2.37 6.717a.108.108 0 0 1-.206 0l-1.703-4.848a.112.112 0 0 1 .103-.152h.859a.11.11 0 0 1 .103.076l.616 1.748a.108.108 0 0 0 .206 0l.954-2.72a.112.112 0 0 0-.103-.152H1.108c-.074 0-.125.076-.103.152l3.127 8.996a.108.108 0 0 0 .205 0l3.787-10.774c.022-.076-.029-.152-.102-.152Z"/></svg>