<svg width="24" height="24" xmlns="http://www.w3.org/2000/svg"><path d="M3.5 12.63V3.5h17v17H10.2l.46 1.5H21a1 1 0 001-1V3a1 1 0 00-1-1H3a1 1 0 00-1 1v10.28h1.27l.23-.65z"/><path fill-rule="evenodd" clip-rule="evenodd" d="M8.6 12.83h10.07v-7.5H5.33v6.18L7 11.5a.6.6 0 01.1-.4l1.43-2.2a.5.5 0 01.86 0l.95 1.43c.2.3.6.32.82.04l2.19-2.8a.5.5 0 01.8 0l2.73 3.49c.28.37.04.94-.4.94H8.18c.22.23.35.53.4.83zM10 8.16a1 1 0 001-1 1 1 0 00-2 0 1 1 0 001 1z"/><path d="M12.2 15.83c.22-.3.32-.65.3-1h6.17v1H12.2zM10.63 17.5l.95-1h7.09v1h-8.04zM10.89 14.78H7.62a.11.11 0 00-.1.08l-.25.72c-.02.08.03.16.1.16h1.27c.1 0 .15.12.08.19L6.7 18.1l1.05 3.4c.02.07-.03.14-.1.14H6.63a.1.1 0 01-.1-.08L6 19.83c-.03-.1-.17-.1-.2 0l-.43 1.22a.1.1 0 000 .06l.39 1.49c.01.04.06.08.1.08h3.29c.07 0 .12-.08.1-.14l-1.33-4.28c-.01-.04 0-.09.03-.12l3.02-3.17c.07-.07.01-.2-.08-.2z"/><path d="M7.02 13H5.03a.11.11 0 00-.1.08l-.26.73c-.03.07.03.15.1.15h.84c.08 0 .13.07.1.15l-2.37 6.72a.1.1 0 01-.2 0l-1.7-4.85a.11.11 0 01.1-.15h.86c.04 0 .09.03.1.07l.62 1.75c.03.1.17.1.2 0l.96-2.72a.11.11 0 00-.1-.15H.1c-.08 0-.13.07-.1.15l3.12 9c.04.1.17.1.2 0l3.8-10.78c.02-.07-.03-.15-.1-.15z" fill="#D8141C"/></svg>