<svg xmlns="http://www.w3.org/2000/svg" width="24" height="24"><path d="m11.89 14.778-3.267.008a.11.11 0 0 0-.102.075l-.25.722c-.022.076.03.152.103.152h1.27c.095 0 .146.122.08.19L7.7 18.105h.007l1.042 3.397c.022.076-.03.145-.103.145h-1.02a.104.104 0 0 1-.102-.076L7 19.83c-.029-.107-.168-.107-.205-.008l-.426 1.223a.109.109 0 0 0 0 .069l.39 1.481c.014.046.058.084.102.084h3.288c.073 0 .125-.076.103-.145l-1.329-4.277c-.014-.038 0-.084.03-.114l3.016-3.176c.066-.069.015-.19-.08-.19Z"/><path fill="#D8141C" d="m8.022 13-1.99.008a.11.11 0 0 0-.102.076l-.257.721c-.03.076.03.152.103.152h.836c.074 0 .125.076.103.152l-2.37 6.717a.108.108 0 0 1-.206 0l-1.703-4.848a.112.112 0 0 1 .103-.152h.859a.11.11 0 0 1 .103.076l.616 1.748a.108.108 0 0 0 .206 0l.954-2.72a.112.112 0 0 0-.103-.152H1.108c-.074 0-.125.076-.103.152l3.127 8.996a.108.108 0 0 0 .205 0l3.787-10.774c.022-.076-.029-.152-.102-.152Z"/><path fill-rule="evenodd" d="M5 4.5h14a.5.5 0 0 1 .5.5v14a.5.5 0 0 1-.5.5h-8.12l.467 1.5H19a2 2 0 0 0 2-2V5a2 2 0 0 0-2-2H5a2 2 0 0 0-2 2v8.278h1.269l.231-.65V5a.5.5 0 0 1 .5-.5Zm8.498 10.531c.029-.364-.069-.729-.266-1.031H18v1.031h-4.502Zm-2.131 2.75.98-1.031h1.84v1.031h-2.82Zm3.333-7.115c0 .359-.07.672-.225.931a1.3 1.3 0 0 1-.614.533c-.374.16-.813.155-1.061.152h-.082V11.25h.084c.284 0 .491.001.651-.068a.271.271 0 0 0 .137-.114c.034-.057.079-.174.079-.402V9.2h-1.685V7H14.7V10.666ZM8.684 7H11.4V10.666c0 .359-.07.672-.224.931a1.3 1.3 0 0 1-.614.533c-.374.16-.813.155-1.061.152h-.082V11.25h.084c.284 0 .491.001.651-.068a.271.271 0 0 0 .137-.114c.034-.057.079-.174.079-.402V9.2H8.684V7Z" clip-rule="evenodd"/></svg>